<svg width="40" height="40" viewBox="0 0 40 40" fill="none" xmlns="http://www.w3.org/2000/svg">
<path fill-rule="evenodd" clip-rule="evenodd" d="M3.3335 39.0613C5.20372 39.0798 12.1338 38.9049 19.1258 37.683C29.2405 35.9154 38.1505 30.4873 37.8762 23.8467C37.7611 21.0617 36.0526 18.9128 33.4912 17.344C35.3885 15.2899 36.5036 12.9771 36.4091 10.6779C36.1145 3.50925 28.062 1.64346 21.5807 1.15244C16.2948 0.751981 9.15585 1.77668 6.09896 2.49575L5.14802 15.0692C8.42771 14.3083 15.8637 13.6544 21.9736 14.1148C26.1887 14.4325 30.4437 15.4776 33.4912 17.344C30.2833 20.8171 24.8391 23.5509 19.2239 24.2296C12.6707 25.0218 6.09721 25.2288 4.38074 25.2144L3.3335 39.0613Z" fill="url(#paint0_linear_140_804)"/>
<path fill-rule="evenodd" clip-rule="evenodd" d="M3.3335 39.0613C5.20372 39.0798 12.1338 38.9049 19.1258 37.683C29.2405 35.9154 38.1505 30.4873 37.8762 23.8467C37.7611 21.0617 36.0526 18.9128 33.4912 17.344C35.3885 15.2899 36.5036 12.9771 36.4091 10.6779C36.1145 3.50925 28.062 1.64346 21.5807 1.15244C16.2948 0.751981 9.15585 1.77668 6.09896 2.49575L5.14802 15.0692C8.42771 14.3083 15.8637 13.6544 21.9736 14.1148C26.1887 14.4325 30.4437 15.4776 33.4912 17.344C30.2833 20.8171 24.8391 23.5509 19.2239 24.2296C12.6707 25.0218 6.09721 25.2288 4.38074 25.2144L3.3335 39.0613Z" fill="black"/>
<defs>
<linearGradient id="paint0_linear_140_804" x1="20.5006" y1="1.0625" x2="5.15482" y2="37.0268" gradientUnits="userSpaceOnUse">
<stop stop-color="#00ED8E"/>
<stop offset="1" stop-color="#0080FF"/>
</linearGradient>
</defs>
</svg>
