<svg width="146" height="40" viewBox="0 0 146 40" fill="none" xmlns="http://www.w3.org/2000/svg">
<path fill-rule="evenodd" clip-rule="evenodd" d="M3.3335 39.0613C5.20372 39.0798 12.1338 38.9049 19.1258 37.683C29.2405 35.9154 38.1505 30.4873 37.8762 23.8467C37.7611 21.0617 36.0526 18.9128 33.4912 17.344C35.3885 15.2899 36.5036 12.9771 36.4091 10.6779C36.1145 3.50925 28.062 1.64346 21.5807 1.15244C16.2948 0.751981 9.15585 1.77668 6.09896 2.49575L5.14802 15.0692C8.42771 14.3083 15.8637 13.6544 21.9736 14.1148C26.1887 14.4325 30.4437 15.4776 33.4912 17.344C30.2833 20.8171 24.8391 23.5509 19.2239 24.2296C12.6707 25.0218 6.09721 25.2288 4.38074 25.2144L3.3335 39.0613Z" fill="url(#paint0_linear_140_802)"/>
<path fill-rule="evenodd" clip-rule="evenodd" d="M3.3335 39.0613C5.20372 39.0798 12.1338 38.9049 19.1258 37.683C29.2405 35.9154 38.1505 30.4873 37.8762 23.8467C37.7611 21.0617 36.0526 18.9128 33.4912 17.344C35.3885 15.2899 36.5036 12.9771 36.4091 10.6779C36.1145 3.50925 28.062 1.64346 21.5807 1.15244C16.2948 0.751981 9.15585 1.77668 6.09896 2.49575L5.14802 15.0692C8.42771 14.3083 15.8637 13.6544 21.9736 14.1148C26.1887 14.4325 30.4437 15.4776 33.4912 17.344C30.2833 20.8171 24.8391 23.5509 19.2239 24.2296C12.6707 25.0218 6.09721 25.2288 4.38074 25.2144L3.3335 39.0613Z" fill="black"/>
<path d="M134.289 28.524C133.038 28.524 131.918 28.216 130.929 27.6C129.939 26.984 129.155 26.144 128.577 25.08C128.017 24.016 127.737 22.8213 127.737 21.496C127.737 20.152 128.017 18.948 128.577 17.884C129.155 16.82 129.93 15.98 130.901 15.364C131.89 14.748 133.019 14.44 134.289 14.44C135.259 14.44 136.127 14.636 136.893 15.028C137.677 15.42 138.302 15.9707 138.769 16.68C139.254 17.3707 139.515 18.1547 139.553 19.032V23.848C139.515 24.7253 139.263 25.5187 138.797 26.228C138.33 26.9373 137.705 27.4973 136.921 27.908C136.137 28.3187 135.259 28.524 134.289 28.524ZM134.905 25.136C135.595 25.136 136.193 24.9867 136.697 24.688C137.219 24.3707 137.621 23.9413 137.901 23.4C138.199 22.84 138.349 22.196 138.349 21.468C138.349 20.7587 138.199 20.1333 137.901 19.592C137.621 19.032 137.219 18.6027 136.697 18.304C136.193 17.9867 135.605 17.828 134.933 17.828C134.242 17.828 133.635 17.9867 133.113 18.304C132.609 18.6213 132.207 19.0507 131.909 19.592C131.629 20.1333 131.489 20.7587 131.489 21.468C131.489 22.196 131.629 22.84 131.909 23.4C132.207 23.9413 132.618 24.3707 133.141 24.688C133.663 24.9867 134.251 25.136 134.905 25.136ZM141.793 28.244H138.153V24.604L138.741 21.3L138.125 18.052V8H141.793V28.244Z" fill="black"/>
<path d="M117.311 28.244V14.72H120.979V28.244H117.311ZM120.979 20.768L119.551 19.816C119.719 18.1546 120.204 16.848 121.007 15.896C121.81 14.9253 122.967 14.44 124.479 14.44C125.132 14.44 125.72 14.552 126.243 14.776C126.766 14.9813 127.242 15.3266 127.671 15.812L125.375 18.444C125.17 18.22 124.918 18.052 124.619 17.94C124.339 17.828 124.012 17.772 123.639 17.772C122.855 17.772 122.211 18.024 121.707 18.528C121.222 19.0133 120.979 19.76 120.979 20.768Z" fill="black"/>
<path d="M106.506 28.524C105.274 28.524 104.164 28.216 103.174 27.6C102.185 26.984 101.41 26.144 100.85 25.08C100.29 24.016 100.01 22.8213 100.01 21.496C100.01 20.152 100.29 18.948 100.85 17.884C101.41 16.82 102.185 15.98 103.174 15.364C104.164 14.748 105.274 14.44 106.506 14.44C107.477 14.44 108.345 14.636 109.11 15.028C109.876 15.42 110.482 15.9706 110.93 16.68C111.397 17.3706 111.649 18.1546 111.686 19.032V23.904C111.649 24.8 111.397 25.5933 110.93 26.284C110.482 26.9746 109.876 27.5253 109.11 27.936C108.345 28.328 107.477 28.524 106.506 28.524ZM107.178 25.136C108.205 25.136 109.036 24.8 109.67 24.128C110.305 23.4373 110.622 22.5506 110.622 21.468C110.622 20.7586 110.473 20.1333 110.174 19.592C109.894 19.032 109.493 18.6026 108.97 18.304C108.466 17.9866 107.869 17.828 107.178 17.828C106.506 17.828 105.909 17.9866 105.386 18.304C104.882 18.6026 104.481 19.032 104.182 19.592C103.902 20.1333 103.762 20.7586 103.762 21.468C103.762 22.196 103.902 22.84 104.182 23.4C104.481 23.9413 104.882 24.3706 105.386 24.688C105.909 24.9866 106.506 25.136 107.178 25.136ZM110.426 28.244V24.604L111.014 21.3L110.426 18.052V14.72H114.066V28.244H110.426Z" fill="black"/>
<path d="M91.5304 28.524C90.093 28.524 88.7584 28.272 87.5264 27.768C86.2944 27.2453 85.2117 26.5267 84.2784 25.612C83.3637 24.6786 82.6544 23.596 82.1504 22.364C81.665 21.132 81.4224 19.8067 81.4224 18.388C81.4224 16.9693 81.665 15.644 82.1504 14.412C82.6544 13.18 83.3637 12.1067 84.2784 11.192C85.2117 10.2773 86.285 9.55865 87.4984 9.03598C88.7304 8.51332 90.0744 8.25198 91.5304 8.25198C93.0984 8.25198 94.4797 8.51332 95.6744 9.03598C96.869 9.53998 97.9237 10.24 98.8384 11.136L96.2624 13.712C95.721 13.1147 95.0584 12.648 94.2744 12.312C93.4904 11.976 92.5757 11.808 91.5304 11.808C90.6157 11.808 89.7757 11.9667 89.0104 12.284C88.2637 12.5827 87.6104 13.0307 87.0504 13.628C86.4904 14.2067 86.061 14.9067 85.7624 15.728C85.4637 16.5307 85.3144 17.4173 85.3144 18.388C85.3144 19.3773 85.4637 20.2733 85.7624 21.076C86.061 21.8787 86.4904 22.5787 87.0504 23.176C87.6104 23.7547 88.2637 24.2027 89.0104 24.52C89.7757 24.8373 90.6157 24.996 91.5304 24.996C92.6317 24.996 93.5744 24.828 94.3584 24.492C95.161 24.156 95.833 23.68 96.3744 23.064L98.9504 25.64C98.0357 26.5547 96.9717 27.264 95.7584 27.768C94.545 28.272 93.1357 28.524 91.5304 28.524Z" fill="black"/>
<path d="M71.5281 28.356L65.8721 14.72H69.8481L73.6001 25.136H72.2561L76.1481 14.72H80.1521L74.1321 28.328L71.5281 28.356ZM67.7761 33.9L71.8921 25.192L74.1321 28.328L71.6681 33.9H67.7761Z" fill="black"/>
<path d="M52.8 28.244V25.136H57.924C58.8387 25.136 59.548 24.856 60.052 24.296C60.5747 23.736 60.836 23.0733 60.836 22.308C60.836 21.7853 60.724 21.3093 60.5 20.88C60.276 20.4507 59.94 20.1147 59.492 19.872C59.0627 19.6107 58.54 19.48 57.924 19.48H52.8V16.4H57.504C58.288 16.4 58.9133 16.204 59.38 15.812C59.8653 15.42 60.108 14.832 60.108 14.048C60.108 13.2453 59.8653 12.648 59.38 12.256C58.9133 11.864 58.288 11.668 57.504 11.668H52.8V8.56H57.952C59.2587 8.56 60.3507 8.80266 61.228 9.288C62.124 9.75466 62.796 10.38 63.244 11.164C63.692 11.9293 63.916 12.7693 63.916 13.684C63.916 14.804 63.5707 15.7747 62.88 16.596C62.208 17.3987 61.2187 17.996 59.912 18.388L60.08 17.156C61.536 17.5667 62.656 18.248 63.44 19.2C64.2427 20.1333 64.644 21.2627 64.644 22.588C64.644 23.6333 64.3827 24.5853 63.86 25.444C63.356 26.284 62.6093 26.9653 61.62 27.488C60.6493 27.992 59.464 28.244 58.064 28.244H52.8ZM50 28.244V8.56H53.78V28.244H50Z" fill="black"/>
<defs>
<linearGradient id="paint0_linear_140_802" x1="20.5006" y1="1.0625" x2="5.15482" y2="37.0268" gradientUnits="userSpaceOnUse">
<stop stop-color="#00ED8E"/>
<stop offset="1" stop-color="#0080FF"/>
</linearGradient>
</defs>
</svg>
