<svg width="44" height="44" viewBox="0 0 44 44" fill="none" xmlns="http://www.w3.org/2000/svg">
<ellipse cx="25.3855" cy="25.3846" rx="16.6155" ry="16.6155" fill="black"/>
<mask id="path-2-inside-1_140_851" fill="white">
<path fill-rule="evenodd" clip-rule="evenodd" d="M34.905 15.3238C32.3964 12.7962 28.9195 11.231 25.077 11.231C17.4299 11.231 11.2307 17.4301 11.2307 25.0772C11.2307 28.9195 12.7958 32.3963 15.3232 34.9049C7.72376 33.3773 2 26.6648 2 18.6155C2 9.43902 9.43902 2 18.6155 2C26.665 2 33.3776 7.72404 34.905 15.3238Z"/>
</mask>
<path d="M34.905 15.3238L32.7757 17.4371L39.8152 24.5301L37.8462 14.7327L34.905 15.3238ZM15.3232 34.9049L14.732 37.846L24.5293 39.8154L17.4366 32.7756L15.3232 34.9049ZM25.077 14.231C28.0877 14.231 30.8072 15.4537 32.7757 17.4371L37.0343 13.2105C33.9856 10.1386 29.7513 8.23096 25.077 8.23096V14.231ZM14.2307 25.0772C14.2307 19.087 19.0868 14.231 25.077 14.231V8.23096C15.7731 8.23096 8.23073 15.7733 8.23073 25.0772H14.2307ZM17.4366 32.7756C15.4534 30.8072 14.2307 28.0878 14.2307 25.0772H8.23073C8.23073 29.7513 10.1382 33.9854 13.2099 37.0341L17.4366 32.7756ZM15.9144 31.9637C9.6884 30.7122 5 25.208 5 18.6155H-1C-1 28.1216 5.75912 36.0424 14.732 37.846L15.9144 31.9637ZM5 18.6155C5 11.0959 11.0959 5 18.6155 5V-1C7.78216 -1 -1 7.78216 -1 18.6155H5ZM18.6155 5C25.2082 5 30.7125 9.68863 31.9638 15.9149L37.8462 14.7327C36.0428 5.75945 28.1219 -1 18.6155 -1V5Z" fill="black" mask="url(#path-2-inside-1_140_851)"/>
<mask id="path-4-inside-2_140_851" fill="white">
<rect x="18.5127" y="25.6929" width="10.1539" height="10.1539" rx="1" transform="rotate(-45 18.5127 25.6929)"/>
</mask>
<rect x="18.5127" y="25.6929" width="10.1539" height="10.1539" rx="1" transform="rotate(-45 18.5127 25.6929)" stroke="white" stroke-width="6" mask="url(#path-4-inside-2_140_851)"/>
</svg>
