<svg width="72" height="72" viewBox="0 0 72 72" fill="none" xmlns="http://www.w3.org/2000/svg">
<circle cx="36" cy="36" r="35.5" stroke="#999999"/>
<circle cx="36" cy="36" r="30" fill="url(#paint0_linear_140_1000)"/>
<path d="M48.07 31.7288C47.9 30.815 46.7313 30.475 46.0725 31.1338L40.4838 36.7013C39.6975 37.4875 38.4013 37.4875 37.5938 36.7013L34.725 33.8325C33.9175 33.025 33.9175 31.75 34.725 30.9638L40.3563 25.3538C41.015 24.695 40.6963 23.5263 39.7825 23.3563C36.4888 22.7188 32.9613 23.675 30.4113 26.225C27.585 29.0088 26.7138 33.025 27.7975 36.595C27.9675 37.1688 27.8613 37.8063 27.4363 38.2313L21.7625 43.8838C20.9763 44.67 20.9763 45.9663 21.7625 46.7525L24.6525 49.6213C25.4388 50.4075 26.735 50.4075 27.5425 49.6213L33.2588 43.9263C33.6838 43.5013 34.3 43.3738 34.895 43.5438C38.4438 44.585 42.4175 43.7138 45.2225 40.9088C47.7088 38.4225 48.665 34.9588 48.07 31.7288Z" fill="white"/>
<defs>
<linearGradient id="paint0_linear_140_1000" x1="36" y1="6" x2="36" y2="66" gradientUnits="userSpaceOnUse">
<stop stop-color="#6245F2"/>
<stop offset="0.5"/>
</linearGradient>
</defs>
</svg>
