<svg width="72" height="72" viewBox="0 0 72 72" fill="none" xmlns="http://www.w3.org/2000/svg">
<circle cx="36" cy="36" r="35.5" stroke="#999999"/>
<circle cx="36" cy="36" r="30" fill="url(#paint0_linear_140_919)"/>
<path d="M16.8492 35.5217C16.8766 29.346 21.8906 24.4214 28.1539 24.4997C34.0017 24.5735 39.2029 29.2986 39.0952 35.8231C38.9947 41.8204 33.9533 46.7295 27.722 46.6548C21.7609 46.582 16.8209 41.5609 16.8492 35.5217Z" fill="white"/>
<path d="M30.6017 35.5217C30.6291 29.346 35.643 24.4214 41.9082 24.4997C47.756 24.5735 52.9563 29.2986 52.8476 35.8231C52.748 41.8204 47.7067 46.7295 41.4753 46.6548C35.5133 46.582 30.5752 41.5609 30.6017 35.5217Z" fill="white"/>
<path d="M34.8476 26.8701C32.1704 28.9549 30.6044 32.1522 30.6017 35.5391C30.5861 39.0595 32.2593 42.2339 34.8375 44.2846C37.3902 42.294 39.0386 39.2426 39.0953 35.8405C39.1574 32.0615 37.4395 28.888 34.8485 26.8701" fill="#ACACAC"/>
<path d="M16.8492 35.5217C16.8218 41.5609 21.7609 46.5829 27.7219 46.6548C33.9524 46.7295 38.9956 41.8204 39.0942 35.8231C39.2029 29.2977 34.0017 24.5735 28.1539 24.4997C21.8906 24.4205 16.8766 29.346 16.8492 35.5217Z" fill="#FEFEFE"/>
<path d="M16.8492 35.5217C16.8766 29.346 21.8906 24.4214 28.1539 24.4997C34.0017 24.5735 39.2029 29.2986 39.0952 35.8231C38.9947 41.8204 33.9533 46.7295 27.722 46.6548C21.7609 46.582 16.8209 41.5609 16.8492 35.5217Z" fill="white"/>
<path d="M30.6017 35.5217C30.6291 29.346 35.643 24.4214 41.9082 24.4997C47.756 24.5735 52.9563 29.2986 52.8476 35.8231C52.748 41.8204 47.7067 46.7295 41.4753 46.6548C35.5133 46.582 30.5752 41.5609 30.6017 35.5217Z" fill="white"/>
<path d="M34.8476 26.8701C32.1704 28.9549 30.6044 32.1522 30.6017 35.5391C30.5861 39.0595 32.2593 42.2339 34.8375 44.2846C37.3902 42.294 39.0386 39.2426 39.0953 35.8405C39.1574 32.0615 37.4395 28.888 34.8485 26.8701" fill="#ACACAC"/>
<defs>
<linearGradient id="paint0_linear_140_919" x1="36" y1="6" x2="36" y2="66" gradientUnits="userSpaceOnUse">
<stop stop-color="#6245F2"/>
<stop offset="0.5"/>
</linearGradient>
</defs>
</svg>
