<svg width="72" height="72" viewBox="0 0 72 72" fill="none" xmlns="http://www.w3.org/2000/svg">
<circle cx="36" cy="36" r="35.5" stroke="#999999"/>
<circle cx="36" cy="36" r="30" fill="url(#paint0_linear_140_980)"/>
<path d="M47.0878 24.762H24.7566C22.2337 24.762 20.1812 26.7186 20.1812 29.1236V31.4251H51.6632V29.1236C51.6632 26.7186 49.6107 24.762 47.0878 24.762ZM20.1812 45.0824C20.1812 47.4874 22.2337 49.4441 24.7566 49.4441H47.0878C49.6107 49.4441 51.6632 47.4874 51.6632 45.0824V35.8861H20.1812V45.0824ZM39.1777 42.7214H45.7253C46.381 42.7214 46.9125 43.2529 46.9125 43.9086C46.9125 44.5643 46.381 45.0958 45.7253 45.0958H39.1777C38.522 45.0958 37.9905 44.5643 37.9905 43.9086C37.9905 43.2529 38.522 42.7214 39.1777 42.7214Z" fill="white"/>
<defs>
<linearGradient id="paint0_linear_140_980" x1="36" y1="6" x2="36" y2="66" gradientUnits="userSpaceOnUse">
<stop stop-color="#6245F2"/>
<stop offset="0.5"/>
</linearGradient>
</defs>
</svg>
