<svg width="72" height="72" viewBox="0 0 72 72" fill="none" xmlns="http://www.w3.org/2000/svg">
<circle cx="36" cy="36" r="35.5" stroke="#999999"/>
<circle cx="36" cy="36" r="30" fill="url(#paint0_linear_140_989)"/>
<path fill-rule="evenodd" clip-rule="evenodd" d="M42.5434 21.0002C42.5434 21.0002 42.6976 23.7614 40.9991 25.6271C39.3007 27.4949 36.4027 27.7504 36.4027 27.7504C36.4027 27.7504 36.2485 24.9841 37.9469 23.1215C39.6443 21.2537 42.5434 21.0002 42.5434 21.0002ZM48.0883 30.9209C46.0583 31.9867 44.6814 34.0384 44.6814 36.3934C44.6814 39.0444 46.4228 41.3069 48.878 42.2107C48.8615 42.3167 48.8549 42.3894 48.8549 42.3894C48.8549 42.3894 47.705 45.164 46.4537 46.9508C45.2024 48.7334 43.4808 50.0246 41.8142 50.0246C40.9725 50.0246 40.1704 49.7094 39.375 49.3968C38.5925 49.0893 37.8164 48.7843 37.0151 48.7843C36.2188 48.7843 35.3226 49.0846 34.4122 49.3897C33.4724 49.7047 32.5176 50.0246 31.6421 50.0246C29.9204 50.0246 28.1404 48.5786 26.1269 45.0082C23.6167 40.5496 23.5605 35.7503 24.76 32.4313C25.9606 29.1092 29.3917 27.9894 31.4339 28.0174C32.9701 28.0387 34.2683 28.5315 35.2436 28.9017C35.8382 29.1274 36.3129 29.3076 36.6483 29.3076C36.9713 29.3076 37.6003 29.0992 38.371 28.8438C39.5896 28.44 41.1625 27.9187 42.4399 27.9187C44.1736 27.9187 46.6696 28.9887 48.0883 30.9209Z" fill="white"/>
<defs>
<linearGradient id="paint0_linear_140_989" x1="36" y1="6" x2="36" y2="66" gradientUnits="userSpaceOnUse">
<stop stop-color="#6245F2"/>
<stop offset="0.5"/>
</linearGradient>
</defs>
</svg>
