<svg width="44" height="44" viewBox="0 0 44 44" fill="none" xmlns="http://www.w3.org/2000/svg">
<path d="M38.9124 4.5375C38.9124 4.5375 33.9624 5.775 30.1124 5.775C26.1249 5.775 21.9999 4.125 21.9999 4.125C21.9999 4.125 18.0124 5.775 14.0249 5.775C10.0374 5.775 5.2249 4.5375 5.2249 4.5375C5.2249 4.5375 4.3999 7.2875 4.3999 11.6875C4.3999 22.6875 8.5249 29.7 13.3374 33.6875C15.9499 36.025 21.9999 39.875 21.9999 39.875C21.9999 39.875 28.5999 35.8875 31.4874 33.55C36.2999 29.5625 39.8749 22.6875 39.8749 11.55C39.7374 7.425 38.9124 4.5375 38.9124 4.5375ZM29.8374 31.625C27.9124 33.275 24.0624 35.6125 21.9999 36.85C20.0749 35.6125 16.6374 33.275 14.7124 31.625C11.1374 28.6 6.8749 22.6875 6.8749 11.6875C6.8749 10.0375 7.0124 8.6625 7.1499 7.7C9.0749 8.1125 11.6874 8.525 14.0249 8.525C17.3249 8.525 20.4874 7.5625 21.9999 7.0125C23.6499 7.5625 26.8124 8.525 29.9749 8.525C32.3124 8.525 34.9249 8.1125 36.8499 7.7C36.9874 8.6625 37.1249 10.0375 37.1249 11.6875C37.1249 20.625 34.6499 27.6375 29.8374 31.625Z" fill="black"/>
<path d="M22 22H6.325L5.5 6.875H22V22ZM32.3125 32.45L22 37.125V22H37.2625L32.3125 32.45Z" fill="black"/>
</svg>
